HIERARCHY
ROOT hip
{
	OFFSET 0.000000 0.000000 0.000000 
	CHANNELS 6 Xposition Yposition Zposition Xrotation Zrotation Yrotation
	JOINT abdomen
	{
		OFFSET 0.000000 3.402643 0.000000 
		CHANNELS 3 Xrotation Zrotation Yrotation
		JOINT chest
		{
			OFFSET 0.000000 8.438565 -0.680529 
			CHANNELS 3 Xrotation Zrotation Yrotation
			JOINT neck
			{
				OFFSET 0.000000 10.207942 -0.272212 
				CHANNELS 3 Xrotation Zrotation Yrotation
				JOINT head
				{
					OFFSET 0.000000 3.130431 0.000000 
					CHANNELS 3 Xrotation Zrotation Yrotation
					End Site
					{
						OFFSET 0.000000 3.130435 0.000000 
					}
				}
			}
			JOINT lCollar
			{
				OFFSET 3.470700 6.669187 -0.816635 
				CHANNELS 3 Yrotation Zrotation Xrotation
				JOINT lShldr
				{
					OFFSET 3.198488 0.000000 0.000000 
					CHANNELS 3 Zrotation Yrotation Xrotation
					JOINT lForeArm
					{
						OFFSET 10.139888 0.000000 0.000000 
						CHANNELS 3 Yrotation Zrotation Xrotation
						JOINT lHand
						{
							OFFSET 8.370511 0.000000 0.000000 
							CHANNELS 3 Zrotation Yrotation Xrotation
							End Site
							{
								OFFSET 4.083176 0.000000 0.000000 
							}
						}
					}
				}
			}
			JOINT rCollar
			{
				OFFSET -3.470700 6.669187 -0.816635 
				CHANNELS 3 Yrotation Zrotation Xrotation
				JOINT rShldr
				{
					OFFSET -3.198488 0.000000 0.000000 
					CHANNELS 3 Zrotation Yrotation Xrotation
					JOINT rForeArm
					{
						OFFSET -10.139888 0.000000 0.000000 
						CHANNELS 3 Yrotation Zrotation Xrotation
						JOINT rHand
						{
							OFFSET -8.370511 0.000000 0.000000 
							CHANNELS 3 Zrotation Yrotation Xrotation
							End Site
							{
								OFFSET -4.083176 0.000000 0.000000 
							}
						}
					}
				}
			}
		}
	}
	JOINT lThigh
	{
		OFFSET 5.308129 -1.633274 1.361059 
		CHANNELS 3 Xrotation Zrotation Yrotation
		JOINT lShin
		{
			OFFSET -2.041588 -20.007561 0.000000 
			CHANNELS 3 Xrotation Zrotation Yrotation
			JOINT lFoot
			{
				OFFSET 0.000000 -19.190928 -1.224953 
				CHANNELS 3 Xrotation Yrotation Zrotation
				End Site
				{
					OFFSET 0.000000 -2.449906 4.627600 
				}
			}
		}
	}
	JOINT rThigh
	{
		OFFSET -5.308129 -1.633274 1.361059 
		CHANNELS 3 Xrotation Zrotation Yrotation
		JOINT rShin
		{
			OFFSET 2.041588 -20.007561 0.000000 
			CHANNELS 3 Xrotation Zrotation Yrotation
			JOINT rFoot
			{
				OFFSET 0.000000 -19.190928 -1.224953 
				CHANNELS 3 Xrotation Yrotation Zrotation
				End Site
				{
					OFFSET 0.000000 -2.449906 4.627600 
				}
			}
		}
	}
}
MOTION
Frames: 6
Frame Time: 0.033333
0.479859 49.297615 -0.332391 -0.019536 1.240234 -1.025813 0.000000 0.000000 0.000000 -2.539287 -0.760971 0.697806 6.007979 -0.592286 0.515224 5.644487 0.312083 -0.045428 -0.042191 9.226621 -1.729902 -6.906953 0.041288 -3.300300 0.084655 -8.059275 7.567004 0.351069 -4.728611 -3.400502 1.324734 -10.292173 -1.696918 8.973895 -9.805877 -14.429739 -0.131725 6.592636 18.646442 -1.554692 3.227729 -3.501076 7.048262 6.600054 5.199890 -1.102096 -3.080153 8.935136 -4.360330 0.238595 -6.108490 9.233678 -11.187195 -11.249333 -1.735373 2.797301 -7.445019 -4.298378 -0.344302 8.953773 
0.474321 49.275723 -0.320148 -0.039072 1.240234 -1.075064 0.000000 0.000000 0.000000 -2.568580 -0.751198 0.717289 6.243112 -0.504310 0.441597 5.195308 0.097484 -0.054634 0.000637 9.235106 -1.755326 -6.917392 -0.017567 -3.359193 0.081323 -7.974283 7.828800 0.113454 -4.693820 -3.386263 1.236584 -10.417211 -1.731295 9.075124 -9.696134 -14.660170 -0.130371 6.542808 18.362337 -1.089603 3.314648 -3.473123 7.759371 6.472312 5.392397 -2.605844 -3.316277 9.023919 -3.585091 0.175079 -5.697932 9.110943 -11.250413 -11.234299 -1.381048 2.814624 -7.384067 -4.487393 -0.370261 9.244499 
0.449405 49.277489 -0.312107 0.019536 1.250000 -1.063814 0.000000 0.000000 0.000000 -2.646724 -0.770661 0.689918 6.134930 -0.602048 0.569579 5.527265 0.409565 -0.012245 -0.006325 9.187124 -1.834568 -6.819174 0.012503 -3.305466 0.079557 -7.988938 7.751057 0.073756 -4.686390 -3.383884 1.183888 -10.436975 -1.813483 9.086343 -9.646491 -14.767735 -0.118574 6.531225 18.087811 -0.890196 3.258193 -3.461414 7.645082 6.523531 5.400376 -2.484420 -3.312289 9.103591 -3.616702 0.181656 -5.769733 9.041080 -11.228964 -11.179296 -1.357029 2.780157 -7.469256 -4.514079 -0.393739 9.192966 
0.441349 49.282768 -0.294174 -0.078145 1.308593 -1.066237 0.000000 0.000000 0.000000 -2.607695 -0.829219 0.662761 6.311449 -0.551285 0.481940 5.273429 0.126739 0.041454 -0.100518 9.170783 -1.794787 -6.799387 0.139774 -3.246295 0.080015 -7.996868 7.780504 0.270061 -4.850829 -3.395989 1.224817 -10.388011 -1.763778 8.936722 -9.677915 -14.623845 -0.107343 6.650702 17.004997 -0.687879 3.152956 -3.449120 7.747666 6.499613 5.416207 -2.549552 -3.318363 9.176854 -3.550704 0.169257 -5.794827 9.107566 -11.275868 -11.268365 -1.226165 2.774528 -7.441455 -4.599504 -0.377312 9.181082 
0.430025 49.281010 -0.275095 -0.156285 1.210933 -1.018927 0.000000 0.000000 0.000000 -2.549047 -0.751209 0.638908 6.183586 -0.578752 0.559845 5.800719 0.380404 0.049736 -0.133892 9.103084 -1.737899 -6.642049 0.131190 -3.169909 0.076945 -8.071318 7.683185 0.361433 -4.737778 -3.401901 1.303305 -10.301134 -1.709891 8.830345 -9.883842 -14.619827 -0.107351 6.615468 16.945686 -0.338315 3.369530 -3.427806 7.711846 6.609965 5.450953 -2.119908 -3.279239 8.931399 -3.849966 0.196315 -5.884059 9.333146 -11.140691 -11.215441 -1.469720 2.774513 -7.368993 -4.530847 -0.384603 9.197289 
0.420837 49.304920 -0.257389 -0.117213 1.201169 -0.998550 0.000000 0.000000 0.000000 -2.597880 -0.751180 0.590720 6.134182 -0.631733 0.569213 5.956963 0.409719 0.059187 -0.139145 9.045359 -1.782702 -6.621549 0.199927 -3.091017 0.076390 -8.082300 7.663908 0.469004 -4.731363 -3.408404 1.302976 -10.399451 -1.739762 8.897164 -9.933120 -14.477151 -0.106635 6.672771 16.966442 -0.317619 3.351197 -3.426623 7.222014 6.676584 5.277326 -1.044377 -3.042562 8.901086 -4.456590 0.241753 -6.225478 9.407559 -11.097408 -11.251507 -1.706195 2.807905 -7.384886 -4.432748 -0.349356 8.934112 
